<?xml version="1.0" standalone="no"?>
<!DOCTYPE svg PUBLIC "-//W3C//DTD SVG 20010904//EN"
 "http://www.w3.org/TR/2001/REC-SVG-20010904/DTD/svg10.dtd">
<svg version="1.0" xmlns="http://www.w3.org/2000/svg"
 width="64.000000pt" height="64.000000pt" viewBox="0 0 64.000000 64.000000"
 preserveAspectRatio="xMidYMid meet">

<g transform="translate(0.000000,64.000000) scale(0.100000,-0.100000)"
fill="#306fcb" stroke="none">
<path d="M162 461 c-19 -12 -28 -175 -12 -240 24 -102 89 -103 145 -1 29 53
30 54 33 25 4 -44 22 -84 43 -96 32 -17 83 13 123 72 30 45 40 53 68 53 23 1
34 6 36 19 3 13 -3 17 -27 17 -29 0 -29 1 -20 32 23 81 -3 137 -56 124 -54
-14 -68 -113 -23 -158 20 -20 20 -20 -9 -66 -21 -34 -36 -48 -56 -50 -28 -3
-29 -1 -41 78 -3 19 -2 68 2 108 9 78 4 96 -20 87 -11 -4 -22 -34 -33 -83 -21
-94 -58 -180 -81 -189 -35 -13 -46 24 -42 151 3 118 -1 136 -30 117z m355 -76
c-2 -26 -8 -49 -11 -53 -11 -10 -26 20 -26 54 0 34 6 44 28 44 11 0 13 -10 9
-45z"/>
</g>
</svg>
